M48
METRIC,LZ,000.000
;FILE_FORMAT=3:3
;TYPE=PLATED
;Layer: PTH_Through
;EasyEDA v6.5.5, 2022-06-05 18:11:37
;12dec15f9c8f45c78e1145ade07de6d6,0eaacf81f25c4b8caaffc9699626bf9f,10
;Gerber Generator version 0.2
;Holesize 1 = 0.305 mm
T01C0.305
;Holesize 2 = 0.813 mm
T02C0.813
;Holesize 3 = 0.900 mm
T03C0.900
;Holesize 4 = 0.951 mm
T04C0.951
;Holesize 5 = 1.000 mm
T05C1.000
%
G05
G90
T01
X059600Y-051281
X009952Y-004259
X087074Y-057880
X079544Y-010379
X080489Y-009785
X086916Y-051798
X021924Y-052527
X021924Y-066946
X086916Y-006935
X033528Y-051840
X006500Y-052400
X076994Y-052444
X082686Y-067684
X016966Y-046848
X002293Y-048592
X003766Y-090164
X007532Y-090028
X029424Y-089427
X035261Y-091214
X019987Y-046045
X002885Y-045660
X050364Y-045802
X003477Y-041931
X051903Y-083401
X028891Y-084003
X015657Y-077298
X056592Y-030226
X056592Y-032271
X022503Y-032329
X029052Y-073284
X089916Y-035560
X095051Y-035560
X016289Y-069624
X087521Y-024979
X060821Y-024130
X041374Y-061459
X058373Y-023472
X020878Y-058898
X066219Y-019446
X032340Y-057981
X087512Y-013244
X056765Y-056062
X006972Y-028876
X081109Y-042604
X023179Y-063708
X087831Y-022997
X087515Y-018302
X051948Y-019279
X023358Y-066242
X029529Y-067650
X049720Y-070361
X015069Y-082378
X050973Y-082410
X031152Y-040780
X013827Y-045864
X042174Y-044971
X035274Y-086135
X059849Y-085439
T02
X066328Y-005200G85X066333Y-005200
X068868Y-005200G85X068873Y-005200
X071027Y-005300G85X071033Y-005300
X073567Y-005300G85X073573Y-005300
X075728Y-005200G85X075733Y-005200
X078268Y-005200G85X078273Y-005200
X080328Y-005200G85X080333Y-005200
X082868Y-005200G85X082873Y-005200
X085228Y-005200G85X085233Y-005200
X087768Y-005200G85X087773Y-005200
X090128Y-005200G85X090133Y-005200
X092668Y-005200G85X092673Y-005200
X061627Y-005200G85X061633Y-005200
X064167Y-005200G85X064173Y-005200
T03
X059600Y-022000
X067982Y-022000
X059600Y-026700
X067982Y-026700
X059600Y-031400
X067982Y-031400
X059600Y-036100
X067982Y-036100
X059600Y-040900
X067982Y-040900
X059600Y-045800
X067982Y-045800
X059600Y-017200
X067982Y-017200
T04
X091986Y-086090G85X092034Y-086090
X091986Y-083550G85X092034Y-083550
X091986Y-075930G85X092034Y-075930
X091986Y-073390G85X092034Y-073390
X091986Y-081010G85X092034Y-081010
X091986Y-078470G85X092034Y-078470
X091986Y-070850G85X092034Y-070850
X084366Y-070850G85X084414Y-070850
X084366Y-073390G85X084414Y-073390
X084366Y-075930G85X084414Y-075930
X084366Y-078470G85X084414Y-078470
X084366Y-081010G85X084414Y-081010
X084366Y-083550G85X084414Y-083550
X084390Y-086090
X005645Y-050051G85X005597Y-050051
X-009595Y-011951G85X-009643Y-011951
X005645Y-047511G85X005597Y-047511
X-009595Y-014491G85X-009643Y-014491
X005645Y-044971G85X005597Y-044971
X-009595Y-017031G85X-009643Y-017031
X005645Y-042431G85X005597Y-042431
X-009595Y-019571G85X-009643Y-019571
X005645Y-039891G85X005597Y-039891
X-009595Y-022111G85X-009643Y-022111
X005645Y-037351G85X005597Y-037351
X-009595Y-024651G85X-009643Y-024651
X005645Y-034811G85X005597Y-034811
X-009595Y-027191G85X-009643Y-027191
X005645Y-032271G85X005597Y-032271
X-009595Y-029731G85X-009643Y-029731
X005645Y-029731G85X005597Y-029731
X-009595Y-032271G85X-009643Y-032271
X005645Y-027191G85X005597Y-027191
X-009595Y-034811G85X-009643Y-034811
X005645Y-024651G85X005597Y-024651
X-009595Y-037351G85X-009643Y-037351
X005645Y-022111G85X005597Y-022111
X-009595Y-039891G85X-009643Y-039891
X005645Y-019571G85X005597Y-019571
X-009595Y-042431G85X-009643Y-042431
X005645Y-017031G85X005597Y-017031
X-009595Y-044971G85X-009643Y-044971
X005645Y-014491G85X005597Y-014491
X-009595Y-047511G85X-009643Y-047511
X005645Y-011951G85X005597Y-011951
X-009595Y-050051G85X-009643Y-050051
X026844Y-050109G85X026796Y-050109
X011604Y-012009G85X011556Y-012009
X026844Y-047569G85X026796Y-047569
X011604Y-014549G85X011556Y-014549
X026844Y-045029G85X026796Y-045029
X011604Y-017089G85X011556Y-017089
X026844Y-042489G85X026796Y-042489
X011604Y-019629G85X011556Y-019629
X026844Y-039949G85X026796Y-039949
X011604Y-022169G85X011556Y-022169
X026844Y-037409G85X026796Y-037409
X011604Y-024709G85X011556Y-024709
X026844Y-034869G85X026796Y-034869
X011604Y-027249G85X011556Y-027249
X026844Y-032329G85X026796Y-032329
X011604Y-029789G85X011556Y-029789
X026844Y-029789G85X026796Y-029789
X011604Y-032329G85X011556Y-032329
X026844Y-027249G85X026796Y-027249
X011604Y-034869G85X011556Y-034869
X026844Y-024709G85X026796Y-024709
X011604Y-037409G85X011556Y-037409
X026844Y-022169G85X026796Y-022169
X011604Y-039949G85X011556Y-039949
X026844Y-019629G85X026796Y-019629
X011604Y-042489G85X011556Y-042489
X026844Y-017089G85X026796Y-017089
X011604Y-045029G85X011556Y-045029
X026844Y-014549G85X026796Y-014549
X011604Y-047569G85X011556Y-047569
X026844Y-012009G85X026796Y-012009
X011604Y-050109G85X011556Y-050109
X053643Y-050051G85X053596Y-050051
X038403Y-011951G85X038356Y-011951
X053643Y-047511G85X053596Y-047511
X038403Y-014491G85X038356Y-014491
X053643Y-044971G85X053596Y-044971
X038403Y-017031G85X038356Y-017031
X053643Y-042431G85X053596Y-042431
X038403Y-019571G85X038356Y-019571
X053643Y-039891G85X053596Y-039891
X038403Y-022111G85X038356Y-022111
X053643Y-037351G85X053596Y-037351
X038403Y-024651G85X038356Y-024651
X053643Y-034811G85X053596Y-034811
X038403Y-027191G85X038356Y-027191
X053643Y-032271G85X053596Y-032271
X038403Y-029731G85X038356Y-029731
X053643Y-029731G85X053596Y-029731
X038403Y-032271G85X038356Y-032271
X053643Y-027191G85X053596Y-027191
X038403Y-034811G85X038356Y-034811
X053643Y-024651G85X053596Y-024651
X038403Y-037351G85X038356Y-037351
X053643Y-022111G85X053596Y-022111
X038403Y-039891G85X038356Y-039891
X053643Y-019571G85X053596Y-019571
X038403Y-042431G85X038356Y-042431
X053643Y-017031G85X053596Y-017031
X038403Y-044971G85X038356Y-044971
X053643Y-014491G85X053596Y-014491
X038403Y-047511G85X038356Y-047511
X053643Y-011951G85X053596Y-011951
X038403Y-050051G85X038356Y-050051
X005744Y-093149G85X005696Y-093149
X-009496Y-055049G85X-009544Y-055049
X005744Y-090609G85X005696Y-090609
X-009496Y-057589G85X-009544Y-057589
X005744Y-088069G85X005696Y-088069
X-009496Y-060129G85X-009544Y-060129
X005744Y-085529G85X005696Y-085529
X-009496Y-062669G85X-009544Y-062669
X005744Y-082989G85X005696Y-082989
X-009496Y-065209G85X-009544Y-065209
X005744Y-080449G85X005696Y-080449
X-009496Y-067749G85X-009544Y-067749
X005744Y-077909G85X005696Y-077909
X-009496Y-070289G85X-009544Y-070289
X005744Y-075369G85X005696Y-075369
X-009496Y-072829G85X-009544Y-072829
X005744Y-072829G85X005696Y-072829
X-009496Y-075369G85X-009544Y-075369
X005744Y-070289G85X005696Y-070289
X-009496Y-077909G85X-009544Y-077909
X005744Y-067749G85X005696Y-067749
X-009496Y-080449G85X-009544Y-080449
X005744Y-065209G85X005696Y-065209
X-009496Y-082989G85X-009544Y-082989
X005744Y-062669G85X005696Y-062669
X-009496Y-085529G85X-009544Y-085529
X005744Y-060129G85X005696Y-060129
X-009496Y-088069G85X-009544Y-088069
X005744Y-057589G85X005696Y-057589
X-009496Y-090609G85X-009544Y-090609
X005744Y-055049G85X005696Y-055049
X-009496Y-093149G85X-009544Y-093149
X026844Y-093050G85X026796Y-093050
X011604Y-054950G85X011556Y-054950
X026844Y-090510G85X026796Y-090510
X011604Y-057490G85X011556Y-057490
X026844Y-087970G85X026796Y-087970
X011604Y-060030G85X011556Y-060030
X026844Y-085430G85X026796Y-085430
X011604Y-062570G85X011556Y-062570
X026844Y-082890G85X026796Y-082890
X011604Y-065110G85X011556Y-065110
X026844Y-080350G85X026796Y-080350
X011604Y-067650G85X011556Y-067650
X026844Y-077810G85X026796Y-077810
X011604Y-070190G85X011556Y-070190
X026844Y-075270G85X026796Y-075270
X011604Y-072730G85X011556Y-072730
X026844Y-072730G85X026796Y-072730
X011604Y-075270G85X011556Y-075270
X026844Y-070190G85X026796Y-070190
X011604Y-077810G85X011556Y-077810
X026844Y-067650G85X026796Y-067650
X011604Y-080350G85X011556Y-080350
X026844Y-065110G85X026796Y-065110
X011604Y-082890G85X011556Y-082890
X026844Y-062570G85X026796Y-062570
X011604Y-085430G85X011556Y-085430
X026844Y-060030G85X026796Y-060030
X011604Y-087970G85X011556Y-087970
X026844Y-057490G85X026796Y-057490
X011604Y-090510G85X011556Y-090510
X026844Y-054950G85X026796Y-054950
X011604Y-093050G85X011556Y-093050
X053643Y-093050G85X053596Y-093050
X038403Y-054950G85X038356Y-054950
X053643Y-090510G85X053596Y-090510
X038403Y-057490G85X038356Y-057490
X053643Y-087970G85X053596Y-087970
X038403Y-060030G85X038356Y-060030
X053643Y-085430G85X053596Y-085430
X038403Y-062570G85X038356Y-062570
X053643Y-082890G85X053596Y-082890
X038403Y-065110G85X038356Y-065110
X053643Y-080350G85X053596Y-080350
X038403Y-067650G85X038356Y-067650
X053643Y-077810G85X053596Y-077810
X038403Y-070190G85X038356Y-070190
X053643Y-075270G85X053596Y-075270
X038403Y-072730G85X038356Y-072730
X053643Y-072730G85X053596Y-072730
X038403Y-075270G85X038356Y-075270
X053643Y-070190G85X053596Y-070190
X038403Y-077810G85X038356Y-077810
X053643Y-067650G85X053596Y-067650
X038403Y-080350G85X038356Y-080350
X053643Y-065110G85X053596Y-065110
X038403Y-082890G85X038356Y-082890
X053643Y-062570G85X053596Y-062570
X038403Y-085430G85X038356Y-085430
X053643Y-060030G85X053596Y-060030
X038403Y-087970G85X038356Y-087970
X053643Y-057490G85X053596Y-057490
X038403Y-090510G85X038356Y-090510
X053643Y-054950G85X053596Y-054950
X038403Y-093050G85X038356Y-093050
X077644Y-093050G85X077596Y-093050
X062404Y-054950G85X062356Y-054950
X077644Y-090510G85X077596Y-090510
X062404Y-057490G85X062356Y-057490
X077644Y-087970G85X077596Y-087970
X062404Y-060030G85X062356Y-060030
X077644Y-085430G85X077596Y-085430
X062404Y-062570G85X062356Y-062570
X077644Y-082890G85X077596Y-082890
X062404Y-065110G85X062356Y-065110
X077644Y-080350G85X077596Y-080350
X062404Y-067650G85X062356Y-067650
X077644Y-077810G85X077596Y-077810
X062404Y-070190G85X062356Y-070190
X077644Y-075270G85X077596Y-075270
X062404Y-072730G85X062356Y-072730
X077644Y-072730G85X077596Y-072730
X062404Y-075270G85X062356Y-075270
X077644Y-070190G85X077596Y-070190
X062404Y-077810G85X062356Y-077810
X077644Y-067650G85X077596Y-067650
X062404Y-080350G85X062356Y-080350
X077644Y-065110G85X077596Y-065110
X062404Y-082890G85X062356Y-082890
X077644Y-062570G85X077596Y-062570
X062404Y-085430G85X062356Y-085430
X077644Y-060030G85X077596Y-060030
X062404Y-087970G85X062356Y-087970
X077644Y-057490G85X077596Y-057490
X062404Y-090510G85X062356Y-090510
X077644Y-054950G85X077596Y-054950
X062404Y-093050G85X062356Y-093050
T05
X030097Y-094000G85X030103Y-094000
X035099Y-094000G85X035104Y-094000
X-012200Y-093003G85X-012200Y-092998
X-012200Y-088001G85X-012200Y-087996
X008700Y-093003G85X008700Y-092998
X008700Y-088001G85X008700Y-087996
X059400Y-093003G85X059400Y-092998
X059400Y-088001G85X059400Y-087996
X-012200Y-050003G85X-012200Y-049997
X-012200Y-045001G85X-012200Y-044996
X008700Y-050003G85X008700Y-049997
X008700Y-045001G85X008700Y-044996
X035400Y-050003G85X035400Y-049997
X035400Y-045001G85X035400Y-044996
X090903Y-091200G85X090898Y-091200
X085901Y-091200G85X085896Y-091200
X091183Y-062230G85X091189Y-062230
X088643Y-062230G85X088649Y-062230
X091183Y-059690G85X091189Y-059690
X088643Y-059690G85X088649Y-059690
X091183Y-057150G85X091189Y-057150
X088643Y-057150G85X088649Y-057150
X091183Y-054610G85X091189Y-054610
X088643Y-054610G85X088649Y-054610
X091183Y-052070G85X091189Y-052070
X088643Y-052070G85X088649Y-052070
X091183Y-049530G85X091189Y-049530
X088643Y-049530G85X088649Y-049530
X091183Y-046990G85X091189Y-046990
X088643Y-046990G85X088649Y-046990
X091183Y-044450G85X091189Y-044450
X088643Y-044450G85X088649Y-044450
X091183Y-041910G85X091189Y-041910
X088643Y-041910G85X088649Y-041910
X091183Y-039370G85X091189Y-039370
X088643Y-039370G85X088649Y-039370
X091183Y-036830G85X091189Y-036830
X088643Y-036830G85X088649Y-036830
X091183Y-034290G85X091189Y-034290
X088643Y-034290G85X088649Y-034290
X091183Y-031750G85X091189Y-031750
X088643Y-031750G85X088649Y-031750
X091183Y-029210G85X091189Y-029210
X088643Y-029210G85X088649Y-029210
X091183Y-026670G85X091189Y-026670
X088643Y-026670G85X088649Y-026670
X091183Y-024130G85X091189Y-024130
X088643Y-024130G85X088649Y-024130
X091183Y-021590G85X091189Y-021590
X088643Y-021590G85X088649Y-021590
X091183Y-019050G85X091189Y-019050
X088643Y-019050G85X088649Y-019050
X091183Y-016510G85X091189Y-016510
X088643Y-016510G85X088649Y-016510
X091183Y-013970G85X091189Y-013970
X088643Y-013970G85X088649Y-013970
M30
