G04 Layer: BottomSolderMaskLayer*
G04 EasyEDA v6.5.5, 2022-06-05 18:11:37*
G04 12dec15f9c8f45c78e1145ade07de6d6,0eaacf81f25c4b8caaffc9699626bf9f,10*
G04 Gerber Generator version 0.2*
G04 Scale: 100 percent, Rotated: No, Reflected: No *
G04 Dimensions in millimeters *
G04 leading zeros omitted , absolute positions ,4 integer and 5 decimal *
%FSLAX45Y45*%
%MOMM*%

%ADD27C,1.8034*%
%ADD28C,1.8032*%
%ADD30C,1.4224*%
%ADD31C,2.0828*%
%ADD33C,2.2032*%
%ADD35C,1.5240*%
%ADD37C,1.9032*%

%LPD*%
D27*
X9161007Y-8608999D02*
G01*
X9240987Y-8608999D01*
X9161007Y-8354999D02*
G01*
X9240987Y-8354999D01*
X9161007Y-7592999D02*
G01*
X9240987Y-7592999D01*
X9161007Y-7338999D02*
G01*
X9240987Y-7338999D01*
X9161007Y-8100999D02*
G01*
X9240987Y-8100999D01*
X9161007Y-7846999D02*
G01*
X9240987Y-7846999D01*
X9161007Y-7084999D02*
G01*
X9240987Y-7084999D01*
X8399007Y-7084999D02*
G01*
X8478987Y-7084999D01*
X8399007Y-7338999D02*
G01*
X8478987Y-7338999D01*
X8399007Y-7592999D02*
G01*
X8478987Y-7592999D01*
X8399007Y-7846999D02*
G01*
X8478987Y-7846999D01*
X8399007Y-8100999D02*
G01*
X8478987Y-8100999D01*
X8399007Y-8354999D02*
G01*
X8478987Y-8354999D01*
X8399007Y-8608999D02*
G01*
X8478987Y-8608999D01*
D28*
X-921898Y-1195070D02*
G01*
X-1001897Y-1195070D01*
X602101Y-4751070D02*
G01*
X522102Y-4751070D01*
X-921898Y-1449070D02*
G01*
X-1001897Y-1449070D01*
X602101Y-4497070D02*
G01*
X522102Y-4497070D01*
X-921898Y-1703070D02*
G01*
X-1001897Y-1703070D01*
X602101Y-4243070D02*
G01*
X522102Y-4243070D01*
X-921898Y-1957070D02*
G01*
X-1001897Y-1957070D01*
X602101Y-3989070D02*
G01*
X522102Y-3989070D01*
X-921898Y-2211070D02*
G01*
X-1001897Y-2211070D01*
X602101Y-3735070D02*
G01*
X522102Y-3735070D01*
X-921898Y-2465070D02*
G01*
X-1001897Y-2465070D01*
X602101Y-3481070D02*
G01*
X522102Y-3481070D01*
X-921898Y-2719070D02*
G01*
X-1001897Y-2719070D01*
X602101Y-3227070D02*
G01*
X522102Y-3227070D01*
X-921898Y-2973070D02*
G01*
X-1001897Y-2973070D01*
X602101Y-2973070D02*
G01*
X522102Y-2973070D01*
X-921898Y-3227070D02*
G01*
X-1001897Y-3227070D01*
X602101Y-2719070D02*
G01*
X522102Y-2719070D01*
X-921898Y-3481070D02*
G01*
X-1001897Y-3481070D01*
X602101Y-2465070D02*
G01*
X522102Y-2465070D01*
X-921898Y-3735070D02*
G01*
X-1001897Y-3735070D01*
X602101Y-2211070D02*
G01*
X522102Y-2211070D01*
X-921898Y-3989070D02*
G01*
X-1001897Y-3989070D01*
X602101Y-1957070D02*
G01*
X522102Y-1957070D01*
X-921898Y-4243070D02*
G01*
X-1001897Y-4243070D01*
X602101Y-1703070D02*
G01*
X522102Y-1703070D01*
X-921898Y-4497070D02*
G01*
X-1001897Y-4497070D01*
X602101Y-1449070D02*
G01*
X522102Y-1449070D01*
X-921898Y-4751070D02*
G01*
X-1001897Y-4751070D01*
X602101Y-1195070D02*
G01*
X522102Y-1195070D01*
X-921898Y-5005070D02*
G01*
X-1001897Y-5005070D01*
X1197985Y-1200912D02*
G01*
X1117986Y-1200912D01*
X2721985Y-4756912D02*
G01*
X2641986Y-4756912D01*
X1197985Y-1454912D02*
G01*
X1117986Y-1454912D01*
X2721985Y-4502912D02*
G01*
X2641986Y-4502912D01*
X1197985Y-1708912D02*
G01*
X1117986Y-1708912D01*
X2721985Y-4248912D02*
G01*
X2641986Y-4248912D01*
X1197985Y-1962912D02*
G01*
X1117986Y-1962912D01*
X2721985Y-3994912D02*
G01*
X2641986Y-3994912D01*
X1197985Y-2216912D02*
G01*
X1117986Y-2216912D01*
X2721985Y-3740912D02*
G01*
X2641986Y-3740912D01*
X1197985Y-2470912D02*
G01*
X1117986Y-2470912D01*
X2721985Y-3486912D02*
G01*
X2641986Y-3486912D01*
X1197985Y-2724912D02*
G01*
X1117986Y-2724912D01*
X2721985Y-3232912D02*
G01*
X2641986Y-3232912D01*
X1197985Y-2978912D02*
G01*
X1117986Y-2978912D01*
X2721985Y-2978912D02*
G01*
X2641986Y-2978912D01*
X1197985Y-3232912D02*
G01*
X1117986Y-3232912D01*
X2721985Y-2724912D02*
G01*
X2641986Y-2724912D01*
X1197985Y-3486912D02*
G01*
X1117986Y-3486912D01*
X2721985Y-2470912D02*
G01*
X2641986Y-2470912D01*
X1197985Y-3740912D02*
G01*
X1117986Y-3740912D01*
X2721985Y-2216912D02*
G01*
X2641986Y-2216912D01*
X1197985Y-3994912D02*
G01*
X1117986Y-3994912D01*
X2721985Y-1962912D02*
G01*
X2641986Y-1962912D01*
X1197985Y-4248912D02*
G01*
X1117986Y-4248912D01*
X2721985Y-1708912D02*
G01*
X2641986Y-1708912D01*
X1197985Y-4502912D02*
G01*
X1117986Y-4502912D01*
X2721985Y-1454912D02*
G01*
X2641986Y-1454912D01*
X1197985Y-4756912D02*
G01*
X1117986Y-4756912D01*
X2721985Y-1200912D02*
G01*
X2641986Y-1200912D01*
X1197985Y-5010912D02*
G01*
X1117986Y-5010912D01*
X3877939Y-1195070D02*
G01*
X3797940Y-1195070D01*
X5401939Y-4751070D02*
G01*
X5321940Y-4751070D01*
X3877939Y-1449070D02*
G01*
X3797940Y-1449070D01*
X5401939Y-4497070D02*
G01*
X5321940Y-4497070D01*
X3877939Y-1703070D02*
G01*
X3797940Y-1703070D01*
X5401939Y-4243070D02*
G01*
X5321940Y-4243070D01*
X3877939Y-1957070D02*
G01*
X3797940Y-1957070D01*
X5401939Y-3989070D02*
G01*
X5321940Y-3989070D01*
X3877939Y-2211070D02*
G01*
X3797940Y-2211070D01*
X5401939Y-3735070D02*
G01*
X5321940Y-3735070D01*
X3877939Y-2465070D02*
G01*
X3797940Y-2465070D01*
X5401939Y-3481070D02*
G01*
X5321940Y-3481070D01*
X3877939Y-2719070D02*
G01*
X3797940Y-2719070D01*
X5401939Y-3227070D02*
G01*
X5321940Y-3227070D01*
X3877939Y-2973070D02*
G01*
X3797940Y-2973070D01*
X5401939Y-2973070D02*
G01*
X5321940Y-2973070D01*
X3877939Y-3227070D02*
G01*
X3797940Y-3227070D01*
X5401939Y-2719070D02*
G01*
X5321940Y-2719070D01*
X3877939Y-3481070D02*
G01*
X3797940Y-3481070D01*
X5401939Y-2465070D02*
G01*
X5321940Y-2465070D01*
X3877939Y-3735070D02*
G01*
X3797940Y-3735070D01*
X5401939Y-2211070D02*
G01*
X5321940Y-2211070D01*
X3877939Y-3989070D02*
G01*
X3797940Y-3989070D01*
X5401939Y-1957070D02*
G01*
X5321940Y-1957070D01*
X3877939Y-4243070D02*
G01*
X3797940Y-4243070D01*
X5401939Y-1703070D02*
G01*
X5321940Y-1703070D01*
X3877939Y-4497070D02*
G01*
X3797940Y-4497070D01*
X5401939Y-1449070D02*
G01*
X5321940Y-1449070D01*
X3877939Y-4751070D02*
G01*
X3797940Y-4751070D01*
X5401939Y-1195070D02*
G01*
X5321940Y-1195070D01*
X3877939Y-5005070D02*
G01*
X3797940Y-5005070D01*
X-911992Y-5504942D02*
G01*
X-991991Y-5504942D01*
X612007Y-9060942D02*
G01*
X532008Y-9060942D01*
X-911992Y-5758942D02*
G01*
X-991991Y-5758942D01*
X612007Y-8806942D02*
G01*
X532008Y-8806942D01*
X-911992Y-6012942D02*
G01*
X-991991Y-6012942D01*
X612007Y-8552942D02*
G01*
X532008Y-8552942D01*
X-911992Y-6266942D02*
G01*
X-991991Y-6266942D01*
X612007Y-8298942D02*
G01*
X532008Y-8298942D01*
X-911992Y-6520942D02*
G01*
X-991991Y-6520942D01*
X612007Y-8044942D02*
G01*
X532008Y-8044942D01*
X-911992Y-6774942D02*
G01*
X-991991Y-6774942D01*
X612007Y-7790942D02*
G01*
X532008Y-7790942D01*
X-911992Y-7028942D02*
G01*
X-991991Y-7028942D01*
X612007Y-7536942D02*
G01*
X532008Y-7536942D01*
X-911992Y-7282942D02*
G01*
X-991991Y-7282942D01*
X612007Y-7282942D02*
G01*
X532008Y-7282942D01*
X-911992Y-7536942D02*
G01*
X-991991Y-7536942D01*
X612007Y-7028942D02*
G01*
X532008Y-7028942D01*
X-911992Y-7790942D02*
G01*
X-991991Y-7790942D01*
X612007Y-6774942D02*
G01*
X532008Y-6774942D01*
X-911992Y-8044942D02*
G01*
X-991991Y-8044942D01*
X612007Y-6520942D02*
G01*
X532008Y-6520942D01*
X-911992Y-8298942D02*
G01*
X-991991Y-8298942D01*
X612007Y-6266942D02*
G01*
X532008Y-6266942D01*
X-911992Y-8552942D02*
G01*
X-991991Y-8552942D01*
X612007Y-6012942D02*
G01*
X532008Y-6012942D01*
X-911992Y-8806942D02*
G01*
X-991991Y-8806942D01*
X612007Y-5758942D02*
G01*
X532008Y-5758942D01*
X-911992Y-9060942D02*
G01*
X-991991Y-9060942D01*
X612007Y-5504942D02*
G01*
X532008Y-5504942D01*
X-911992Y-9314942D02*
G01*
X-991991Y-9314942D01*
X1197985Y-5495036D02*
G01*
X1117986Y-5495036D01*
X2721985Y-9051036D02*
G01*
X2641986Y-9051036D01*
X1197985Y-5749036D02*
G01*
X1117986Y-5749036D01*
X2721985Y-8797036D02*
G01*
X2641986Y-8797036D01*
X1197985Y-6003036D02*
G01*
X1117986Y-6003036D01*
X2721985Y-8543036D02*
G01*
X2641986Y-8543036D01*
X1197985Y-6257036D02*
G01*
X1117986Y-6257036D01*
X2721985Y-8289036D02*
G01*
X2641986Y-8289036D01*
X1197985Y-6511036D02*
G01*
X1117986Y-6511036D01*
X2721985Y-8035036D02*
G01*
X2641986Y-8035036D01*
X1197985Y-6765036D02*
G01*
X1117986Y-6765036D01*
X2721985Y-7781036D02*
G01*
X2641986Y-7781036D01*
X1197985Y-7019036D02*
G01*
X1117986Y-7019036D01*
X2721985Y-7527036D02*
G01*
X2641986Y-7527036D01*
X1197985Y-7273036D02*
G01*
X1117986Y-7273036D01*
X2721985Y-7273036D02*
G01*
X2641986Y-7273036D01*
X1197985Y-7527036D02*
G01*
X1117986Y-7527036D01*
X2721985Y-7019036D02*
G01*
X2641986Y-7019036D01*
X1197985Y-7781036D02*
G01*
X1117986Y-7781036D01*
X2721985Y-6765036D02*
G01*
X2641986Y-6765036D01*
X1197985Y-8035036D02*
G01*
X1117986Y-8035036D01*
X2721985Y-6511036D02*
G01*
X2641986Y-6511036D01*
X1197985Y-8289036D02*
G01*
X1117986Y-8289036D01*
X2721985Y-6257036D02*
G01*
X2641986Y-6257036D01*
X1197985Y-8543036D02*
G01*
X1117986Y-8543036D01*
X2721985Y-6003036D02*
G01*
X2641986Y-6003036D01*
X1197985Y-8797036D02*
G01*
X1117986Y-8797036D01*
X2721985Y-5749036D02*
G01*
X2641986Y-5749036D01*
X1197985Y-9051036D02*
G01*
X1117986Y-9051036D01*
X2721985Y-5495036D02*
G01*
X2641986Y-5495036D01*
X1197985Y-9305036D02*
G01*
X1117986Y-9305036D01*
X3877939Y-5495036D02*
G01*
X3797940Y-5495036D01*
X5401939Y-9051036D02*
G01*
X5321940Y-9051036D01*
X3877939Y-5749036D02*
G01*
X3797940Y-5749036D01*
X5401939Y-8797036D02*
G01*
X5321940Y-8797036D01*
X3877939Y-6003036D02*
G01*
X3797940Y-6003036D01*
X5401939Y-8543036D02*
G01*
X5321940Y-8543036D01*
X3877939Y-6257036D02*
G01*
X3797940Y-6257036D01*
X5401939Y-8289036D02*
G01*
X5321940Y-8289036D01*
X3877939Y-6511036D02*
G01*
X3797940Y-6511036D01*
X5401939Y-8035036D02*
G01*
X5321940Y-8035036D01*
X3877939Y-6765036D02*
G01*
X3797940Y-6765036D01*
X5401939Y-7781036D02*
G01*
X5321940Y-7781036D01*
X3877939Y-7019036D02*
G01*
X3797940Y-7019036D01*
X5401939Y-7527036D02*
G01*
X5321940Y-7527036D01*
X3877939Y-7273036D02*
G01*
X3797940Y-7273036D01*
X5401939Y-7273036D02*
G01*
X5321940Y-7273036D01*
X3877939Y-7527036D02*
G01*
X3797940Y-7527036D01*
X5401939Y-7019036D02*
G01*
X5321940Y-7019036D01*
X3877939Y-7781036D02*
G01*
X3797940Y-7781036D01*
X5401939Y-6765036D02*
G01*
X5321940Y-6765036D01*
X3877939Y-8035036D02*
G01*
X3797940Y-8035036D01*
X5401939Y-6511036D02*
G01*
X5321940Y-6511036D01*
X3877939Y-8289036D02*
G01*
X3797940Y-8289036D01*
X5401939Y-6257036D02*
G01*
X5321940Y-6257036D01*
X3877939Y-8543036D02*
G01*
X3797940Y-8543036D01*
X5401939Y-6003036D02*
G01*
X5321940Y-6003036D01*
X3877939Y-8797036D02*
G01*
X3797940Y-8797036D01*
X5401939Y-5749036D02*
G01*
X5321940Y-5749036D01*
X3877939Y-9051036D02*
G01*
X3797940Y-9051036D01*
X5401939Y-5495036D02*
G01*
X5321940Y-5495036D01*
X3877939Y-9305036D02*
G01*
X3797940Y-9305036D01*
X6277985Y-5495036D02*
G01*
X6197986Y-5495036D01*
X7801985Y-9051036D02*
G01*
X7721986Y-9051036D01*
X6277985Y-5749036D02*
G01*
X6197986Y-5749036D01*
X7801985Y-8797036D02*
G01*
X7721986Y-8797036D01*
X6277985Y-6003036D02*
G01*
X6197986Y-6003036D01*
X7801985Y-8543036D02*
G01*
X7721986Y-8543036D01*
X6277985Y-6257036D02*
G01*
X6197986Y-6257036D01*
X7801985Y-8289036D02*
G01*
X7721986Y-8289036D01*
X6277985Y-6511036D02*
G01*
X6197986Y-6511036D01*
X7801985Y-8035036D02*
G01*
X7721986Y-8035036D01*
X6277985Y-6765036D02*
G01*
X6197986Y-6765036D01*
X7801985Y-7781036D02*
G01*
X7721986Y-7781036D01*
X6277985Y-7019036D02*
G01*
X6197986Y-7019036D01*
X7801985Y-7527036D02*
G01*
X7721986Y-7527036D01*
X6277985Y-7273036D02*
G01*
X6197986Y-7273036D01*
X7801985Y-7273036D02*
G01*
X7721986Y-7273036D01*
X6277985Y-7527036D02*
G01*
X6197986Y-7527036D01*
X7801985Y-7019036D02*
G01*
X7721986Y-7019036D01*
X6277985Y-7781036D02*
G01*
X6197986Y-7781036D01*
X7801985Y-6765036D02*
G01*
X7721986Y-6765036D01*
X6277985Y-8035036D02*
G01*
X6197986Y-8035036D01*
X7801985Y-6511036D02*
G01*
X7721986Y-6511036D01*
X6277985Y-8289036D02*
G01*
X6197986Y-8289036D01*
X7801985Y-6257036D02*
G01*
X7721986Y-6257036D01*
X6277985Y-8543036D02*
G01*
X6197986Y-8543036D01*
X7801985Y-6003036D02*
G01*
X7721986Y-6003036D01*
X6277985Y-8797036D02*
G01*
X6197986Y-8797036D01*
X7801985Y-5749036D02*
G01*
X7721986Y-5749036D01*
X6277985Y-9051036D02*
G01*
X6197986Y-9051036D01*
X7801985Y-5495036D02*
G01*
X7721986Y-5495036D01*
X6277985Y-9305036D02*
G01*
X6197986Y-9305036D01*
G36*
X6561836Y-591057D02*
G01*
X6561836Y-448818D01*
X6704075Y-448818D01*
X6704075Y-591057D01*
G37*
D30*
G01*
X6887006Y-519988D03*
G36*
X7031990Y-601218D02*
G01*
X7031990Y-458978D01*
X7174229Y-458978D01*
X7174229Y-601218D01*
G37*
G01*
X7357008Y-529996D03*
G36*
X7501890Y-591057D02*
G01*
X7501890Y-448818D01*
X7644129Y-448818D01*
X7644129Y-591057D01*
G37*
G01*
X7827009Y-519988D03*
G36*
X7961884Y-591057D02*
G01*
X7961884Y-448818D01*
X8104124Y-448818D01*
X8104124Y-591057D01*
G37*
G01*
X8287004Y-519988D03*
G36*
X8451850Y-591057D02*
G01*
X8451850Y-448818D01*
X8594090Y-448818D01*
X8594090Y-591057D01*
G37*
G01*
X8777020Y-519988D03*
G36*
X8941815Y-591057D02*
G01*
X8941815Y-448818D01*
X9084056Y-448818D01*
X9084056Y-591057D01*
G37*
G01*
X9267012Y-519988D03*
D31*
G01*
X5960008Y-2199995D03*
G01*
X6798208Y-2199995D03*
G01*
X5960008Y-2669997D03*
G01*
X6798208Y-2669997D03*
G01*
X5960008Y-3139998D03*
G01*
X6798208Y-3139998D03*
G01*
X5960008Y-3610000D03*
G01*
X6798208Y-3610000D03*
G01*
X5960008Y-4090009D03*
G01*
X6798208Y-4090009D03*
G01*
X5960008Y-4580001D03*
G01*
X6798208Y-4580001D03*
G36*
X432054Y-5095239D02*
G01*
X432054Y-4914900D01*
X692150Y-4914900D01*
X692150Y-5095239D01*
G37*
G36*
X2551938Y-5101081D02*
G01*
X2551938Y-4920742D01*
X2812034Y-4920742D01*
X2812034Y-5101081D01*
G37*
G36*
X5231891Y-5095239D02*
G01*
X5231891Y-4914900D01*
X5491988Y-4914900D01*
X5491988Y-5095239D01*
G37*
G36*
X441960Y-9405112D02*
G01*
X441960Y-9224771D01*
X702055Y-9224771D01*
X702055Y-9405112D01*
G37*
G36*
X2551938Y-9395205D02*
G01*
X2551938Y-9214865D01*
X2812034Y-9214865D01*
X2812034Y-9395205D01*
G37*
G36*
X5231891Y-9395205D02*
G01*
X5231891Y-9214865D01*
X5491988Y-9214865D01*
X5491988Y-9395205D01*
G37*
G36*
X7631938Y-9395205D02*
G01*
X7631938Y-9214865D01*
X7892034Y-9214865D01*
X7892034Y-9395205D01*
G37*
G01*
X5960008Y-1720011D03*
G01*
X6798208Y-1720011D03*
D33*
G01*
X3010004Y-9400037D03*
G01*
X3510003Y-9400037D03*
G01*
X-1219959Y-9299991D03*
G01*
X-1219959Y-8799992D03*
G01*
X870021Y-9299994D03*
G01*
X870021Y-8799995D03*
G01*
X5940023Y-9300006D03*
G01*
X5940023Y-8800007D03*
G01*
X-1220022Y-4999977D03*
G01*
X-1220022Y-4499978D03*
G01*
X870028Y-4999992D03*
G01*
X870028Y-4499993D03*
G01*
X3540031Y-5000000D03*
G01*
X3540031Y-4500001D03*
G01*
X9090025Y-9119996D03*
G01*
X8590025Y-9119996D03*
G36*
X6086856Y-596137D02*
G01*
X6086856Y-443737D01*
X6239256Y-443737D01*
X6239256Y-596137D01*
G37*
D35*
G01*
X6417030Y-519988D03*
G36*
X9023350Y-6318250D02*
G01*
X9023350Y-6127750D01*
X9213850Y-6127750D01*
X9213850Y-6318250D01*
G37*
D37*
G01*
X8864600Y-6223000D03*
G01*
X9118600Y-5969000D03*
G01*
X8864600Y-5969000D03*
G01*
X9118600Y-5715000D03*
G01*
X8864600Y-5715000D03*
G01*
X9118600Y-5461000D03*
G01*
X8864600Y-5461000D03*
G01*
X9118600Y-5207000D03*
G01*
X8864600Y-5207000D03*
G01*
X9118600Y-4953000D03*
G01*
X8864600Y-4953000D03*
G01*
X9118600Y-4699000D03*
G01*
X8864600Y-4699000D03*
G01*
X9118600Y-4445000D03*
G01*
X8864600Y-4445000D03*
G01*
X9118600Y-4191000D03*
G01*
X8864600Y-4191000D03*
G01*
X9118600Y-3937000D03*
G01*
X8864600Y-3937000D03*
G01*
X9118600Y-3683000D03*
G01*
X8864600Y-3683000D03*
G01*
X9118600Y-3429000D03*
G01*
X8864600Y-3429000D03*
G01*
X9118600Y-3175000D03*
G01*
X8864600Y-3175000D03*
G01*
X9118600Y-2921000D03*
G01*
X8864600Y-2921000D03*
G01*
X9118600Y-2667000D03*
G01*
X8864600Y-2667000D03*
G01*
X9118600Y-2413000D03*
G01*
X8864600Y-2413000D03*
G01*
X9118600Y-2159000D03*
G01*
X8864600Y-2159000D03*
G01*
X9118600Y-1905000D03*
G01*
X8864600Y-1905000D03*
G01*
X9118600Y-1651000D03*
G01*
X8864600Y-1651000D03*
G01*
X9118600Y-1397000D03*
G01*
X8864600Y-1397000D03*
M02*
