G04 Layer: MechanicalLayer*
G04 EasyEDA v6.5.5, 2022-06-05 18:11:37*
G04 12dec15f9c8f45c78e1145ade07de6d6,0eaacf81f25c4b8caaffc9699626bf9f,10*
G04 Gerber Generator version 0.2*
G04 Scale: 100 percent, Rotated: No, Reflected: No *
G04 Dimensions in millimeters *
G04 leading zeros omitted , absolute positions ,4 integer and 5 decimal *
%FSLAX45Y45*%
%MOMM*%

%ADD38C,0.0500*%

%LPD*%
D38*
X712215Y-5165089D02*
G01*
X712215Y-1035050D01*
X-1107947Y-1035050D01*
X-1107947Y-5165089D01*
X712215Y-5165089D01*
X2832100Y-5170931D02*
G01*
X2832100Y-1040892D01*
X1011936Y-1040892D01*
X1011936Y-5170931D01*
X2832100Y-5170931D01*
X5512054Y-5165089D02*
G01*
X5512054Y-1035050D01*
X3691890Y-1035050D01*
X3691890Y-5165089D01*
X5512054Y-5165089D01*
X722121Y-9474962D02*
G01*
X722121Y-5344921D01*
X-1098042Y-5344921D01*
X-1098042Y-9474962D01*
X722121Y-9474962D01*
X2832100Y-9465055D02*
G01*
X2832100Y-5335015D01*
X1011936Y-5335015D01*
X1011936Y-9465055D01*
X2832100Y-9465055D01*
X5512054Y-9465055D02*
G01*
X5512054Y-5335015D01*
X3691890Y-5335015D01*
X3691890Y-9465055D01*
X5512054Y-9465055D01*
X7912100Y-9465055D02*
G01*
X7912100Y-5335015D01*
X6091936Y-5335015D01*
X6091936Y-9465055D01*
X7912100Y-9465055D01*
X2849981Y-9239984D02*
G01*
X2849981Y-9560024D01*
X3669893Y-9560024D01*
X3669893Y-9239984D01*
X2849981Y-9239984D01*
X-1380020Y-9460024D02*
G01*
X-1059980Y-9460024D01*
X-1059980Y-8640112D01*
X-1380020Y-8640112D01*
X-1380020Y-9460024D01*
X709980Y-9460024D02*
G01*
X1030020Y-9460024D01*
X1030020Y-8640112D01*
X709980Y-8640112D01*
X709980Y-9460024D01*
X5779983Y-9460024D02*
G01*
X6100023Y-9460024D01*
X6100023Y-8640112D01*
X5779983Y-8640112D01*
X5779983Y-9460024D01*
X-1380020Y-5160022D02*
G01*
X-1059980Y-5160022D01*
X-1059980Y-4340110D01*
X-1380020Y-4340110D01*
X-1380020Y-5160022D01*
X709980Y-5160022D02*
G01*
X1030020Y-5160022D01*
X1030020Y-4340110D01*
X709980Y-4340110D01*
X709980Y-5160022D01*
X3379983Y-5160022D02*
G01*
X3700023Y-5160022D01*
X3700023Y-4340110D01*
X3379983Y-4340110D01*
X3379983Y-5160022D01*
X9250024Y-9280024D02*
G01*
X9250024Y-8959984D01*
X8430112Y-8959984D01*
X8430112Y-9280024D01*
X9250024Y-9280024D01*
X8708643Y-6377939D02*
G01*
X8708643Y-1243076D01*
X9273540Y-1243076D01*
X9273540Y-6377939D01*
X8708643Y-6377939D01*
M02*
